# xmcd CD database file
#
# Track frame offsets:
#	150
#	53012
#	107944
#	166255
#	189055
#	235892
#	240649
#
# Disc length: 3953 seconds
#
# Revision: 0
# Processed by: cddbd v1.5PL3 Copyright (c) Steve Scherf et al.
# Submitted via: CDex 1.50
#
DISCID=4e0f6f07
DTITLE=Pat Metheny - Special Quartet Live (1/2)
DYEAR=2000
DGENRE=Jazz
TTITLE0=Slings and Arrows
TTITLE1=Half Past Late
TTITLE2=Timeline
TTITLE3=Into the Dream
TTITLE4=Extradition
TTITLE5=Michael Talks
TTITLE6=Every Day I Thank You
EXTD=YEAR: 2000
EXTT0=
EXTT1=
EXTT2=
EXTT3=
EXTT4=
EXTT5=
EXTT6=
PLAYORDER=
